<svg xmlns="http://www.w3.org/2000/svg" version="1.1" xmlns:xlink="http://www.w3.org/1999/xlink" width="1500" height="545" viewBox="0 0 1500 545"><svg xml:space="preserve" width="1500" height="545" data-version="2" data-id="lg_hUeKPDAl7OwE2VbAfX" viewBox="0 0 628 545" x="0" y="0"><rect width="100%" height="100%" fill="transparent"></rect><path fill="#02f3e9" d="m311.709 5.395-99.384 72.21 37.972 116.822h122.824l37.972-116.822zM36.08 416.696q-14.64 0-22.33-8.33-7.69-8.33-7.69-23.88v-97.72h20.13v99.18q0 6.59 2.66 9.52 2.65 2.93 7.59 2.93 4.94 0 7.6-2.93 2.65-2.93 2.65-9.52v-99.18h19.4v97.72q0 15.55-7.69 23.88-7.68 8.33-22.32 8.33"></path><rect width="60.03" height="129.93" x="-30.02" y="-64.97" fill="none" rx="0" ry="0" transform="translate(36.58 352.23)"></rect><path fill="#02f3e9" d="M106.53 416.696q-14.64 0-22.14-8.33t-7.5-23.88v-7.32h19.03v8.78q0 12.45 10.43 12.45 5.12 0 7.78-3.02 2.65-3.02 2.65-9.79 0-8.05-3.66-14.18-3.66-6.14-13.54-14.74-12.45-10.98-17.39-19.85-4.94-8.88-4.94-20.04 0-15.19 7.69-23.52 7.68-8.32 22.32-8.32 14.46 0 21.87 8.32 7.41 8.33 7.41 23.89v5.3h-19.03v-6.59q0-6.58-2.56-9.6-2.56-3.02-7.5-3.02-10.07 0-10.07 12.26 0 6.95 3.75 12.99t13.64 14.64q12.62 10.98 17.38 19.95 4.76 8.97 4.76 21.04 0 15.74-7.78 24.16t-22.6 8.42"></path><rect width="60.02" height="131.76" x="-30.01" y="-65.88" fill="none" rx="0" ry="0" transform="translate(107.4 351.32)"></rect><path fill="#02f3e9" d="M148.44 286.766h54.9v18.3h-34.77v33.85h27.63v18.3h-27.63v39.35h34.77v18.3h-54.9Z"></path><rect width="54.9" height="128.1" x="-27.45" y="-64.05" fill="none" rx="0" ry="0" transform="translate(176.39 351.32)"></rect><path fill="#02f3e9" d="M214.87 286.766h29.83q15.55 0 22.69 7.23 7.14 7.22 7.14 22.23v7.87q0 19.95-13.18 25.25v.37q7.32 2.2 10.34 8.97 3.02 6.77 3.02 18.11v22.51q0 5.49.36 8.88.37 3.38 1.83 6.68h-20.49q-1.1-3.11-1.47-5.86-.36-2.74-.36-9.88v-23.42q0-8.79-2.84-12.27-2.83-3.47-9.79-3.47H235v54.9h-20.13Zm27.45 54.9q6.04 0 9.06-3.11 3.02-3.11 3.02-10.43v-9.89q0-6.95-2.48-10.06-2.47-3.11-7.77-3.11H235v36.6Z"></path><rect width="62.03" height="128.1" x="-31.02" y="-64.05" fill="none" rx="0" ry="0" transform="translate(246.38 351.32)"></rect><path fill="#02f3e9" d="M282.58 286.766h20.31l13.18 99.37h.36l13.18-99.37h18.48l-19.4 128.1h-26.71Z"></path><rect width="65.51" height="128.1" x="-32.76" y="-64.05" fill="none" rx="0" ry="0" transform="translate(315.83 351.32)"></rect><path fill="#02f3e9" d="M357.79 286.766h54.9v18.3h-34.77v33.85h27.63v18.3h-27.63v39.35h34.77v18.3h-54.9Z"></path><rect width="54.9" height="128.1" x="-27.45" y="-64.05" fill="none" rx="0" ry="0" transform="translate(385.74 351.32)"></rect><path fill="#02f3e9" d="M424.22 286.766h29.83q15.55 0 22.69 7.23 7.14 7.22 7.14 22.23v7.87q0 19.95-13.18 25.25v.37q7.32 2.2 10.34 8.97 3.02 6.77 3.02 18.11v22.51q0 5.49.37 8.88.36 3.38 1.83 6.68h-20.5q-1.1-3.11-1.46-5.86-.37-2.74-.37-9.88v-23.42q0-8.79-2.84-12.27-2.83-3.47-9.79-3.47h-6.95v54.9h-20.13Zm27.45 54.9q6.04 0 9.06-3.11 3.02-3.11 3.02-10.43v-9.89q0-6.95-2.47-10.06-2.47-3.11-7.78-3.11h-9.15v36.6Z"></path><rect width="62.04" height="128.1" x="-31.02" y="-64.05" fill="none" rx="0" ry="0" transform="translate(455.74 351.32)"></rect><path fill="#02f3e9" d="M524.14 416.696q-14.64 0-22.15-8.33-7.5-8.33-7.5-23.88v-7.32h19.03v8.78q0 12.45 10.43 12.45 5.13 0 7.78-3.02 2.66-3.02 2.66-9.79 0-8.05-3.66-14.18-3.66-6.14-13.55-14.74-12.44-10.98-17.38-19.85-4.94-8.88-4.94-20.04 0-15.19 7.68-23.52 7.69-8.32 22.33-8.32 14.46 0 21.87 8.32 7.41 8.33 7.41 23.89v5.3h-19.03v-6.59q0-6.58-2.56-9.6-2.57-3.02-7.51-3.02-10.06 0-10.06 12.26 0 6.95 3.75 12.99t13.63 14.64q12.63 10.98 17.39 19.95 4.76 8.97 4.76 21.04 0 15.74-7.78 24.16t-22.6 8.42"></path><rect width="60.03" height="131.76" x="-30.02" y="-65.88" fill="none" rx="0" ry="0" transform="translate(525 351.32)"></rect><path fill="#02f3e9" d="M566.04 286.766h54.9v18.3h-34.77v33.85h27.64v18.3h-27.64v39.35h34.77v18.3h-54.9Z"></path><rect width="54.9" height="128.1" x="-27.45" y="-64.05" fill="none" rx="0" ry="0" transform="translate(593.99 351.32)"></rect><path fill="#02f3e9" d="M127.36 533.476q-.92 0-1.82-.23t-1.61-.57q-.7-.34-1.05-.7l1.16-2.09q.24.2.76.52t1.2.56q.68.24 1.36.24 1.13 0 1.88-.52.76-.53.76-1.54 0-.84-.44-1.39-.44-.55-1.15-.97-.72-.42-1.54-.8-.83-.39-1.57-.87-.86-.57-1.5-1.52-.64-.94-.64-2.44 0-1.47.67-2.42t1.78-1.42q1.12-.47 2.44-.47 1.05 0 1.8.22t1.25.53q.51.3.8.55l-1.17 2q-.37-.4-1.12-.74-.75-.34-1.67-.34-1.08 0-1.72.49-.64.5-.64 1.47 0 .86.57 1.46.58.61 1.47 1.1.89.5 1.83 1 .95.51 1.68 1.19.59.53 1.01 1.32.42.79.42 1.78 0 1.5-.7 2.53-.69 1.04-1.86 1.55-1.16.52-2.64.52"></path><rect width="9.68" height="16.63" x="-4.84" y="-8.31" fill="none" rx="0" ry="0" transform="translate(128.22 525.66)"></rect><path fill="#02f3e9" d="M138.56 533.256v-8.16h-1.78v-1.94h1.78v-4.11l2.4-.53v4.64h2.33v1.94h-2.33v8.16Z"></path><rect width="6.51" height="14.74" x="-3.25" y="-7.37" fill="none" rx="0" ry="0" transform="translate(140.53 526.39)"></rect><path fill="#02f3e9" d="M148.22 533.256v-10.1h2.38v1.98q.35-.99 1.13-1.62.78-.62 1.81-.62.71 0 .97.13l-.33 2.4q-.2-.13-.86-.13-.55 0-1.18.24-.64.24-1.09.84-.45.61-.45 1.69v5.19Z"></path><rect width="6.29" height="10.36" x="-3.15" y="-5.18" fill="none" rx="0" ry="0" transform="translate(151.87 528.58)"></rect><path fill="#02f3e9" d="M163.64 533.476q-1.89 0-3.08-.74-1.19-.73-1.74-1.94t-.55-2.58q0-1.65.67-2.84.68-1.18 1.86-1.83 1.19-.65 2.69-.65 2.4 0 3.5 1.33t1.1 3.57q0 .6-.07 1.24h-7.26q.24 1.36.98 1.94.74.59 1.97.59 1.19 0 1.87-.22.68-.22 1.12-.44l.73 1.69q-.44.29-1.37.58-.92.3-2.42.3m-2.88-6.09h5.02q.02-1.43-.64-1.96t-1.72-.53q-1.1 0-1.79.58-.69.59-.87 1.91"></path><rect width="9.82" height="10.58" x="-4.91" y="-5.29" fill="none" rx="0" ry="0" transform="translate(163.68 528.69)"></rect><path fill="#02f3e9" d="M178.14 533.476q-1.34 0-2.5-.64-1.15-.64-1.86-1.82-.7-1.19-.7-2.84 0-1.59.6-2.77.61-1.19 1.72-1.85 1.11-.66 2.65-.66.93 0 1.68.32.76.32 1.28.77t.69.87l.05-1.7h2.26v10.1h-2.24l-.04-1.78q-.22.48-.74.94-.52.47-1.24.76-.73.3-1.61.3m.4-1.98q.81 0 1.48-.39.67-.38 1.08-1.08.41-.71.41-1.68v-.15q0-.99-.41-1.73-.41-.73-1.08-1.14-.67-.41-1.48-.41-1.48 0-2.22.95-.73.94-.73 2.33 0 1.41.73 2.35.74.95 2.22.95"></path><rect width="10.93" height="10.58" x="-5.46" y="-5.29" fill="none" rx="0" ry="0" transform="translate(179.04 528.69)"></rect><path fill="#02f3e9" d="M189.93 533.256v-10.1h2.38v1.83q.5-1.08 1.45-1.59.95-.5 2.11-.5 1.5.02 2.27.53.77.5 1.05 1.34.49-.86 1.46-1.37.96-.5 2.04-.5 1.65 0 2.45.62.81.63 1.06 1.81.25 1.18.25 2.87v5.06h-2.39v-5.08q0-1.7-.35-2.51-.34-.81-1.41-.81-1.46 0-2.14.96-.68.97-.68 2.42v5.02h-2.38v-5.43q0-.95-.07-1.61-.08-.66-.47-1.01-.38-.35-1.3-.35-.77 0-1.45.46-.67.46-1.07 1.22-.41.76-.41 1.7v5.02Z"></path><rect width="16.52" height="10.36" x="-8.26" y="-5.18" fill="none" rx="0" ry="0" transform="translate(198.69 528.58)"></rect><path fill="#02f3e9" d="M212.33 533.256v-16.17h2.35v16.17Z"></path><rect width="2.35" height="16.17" x="-1.18" y="-8.09" fill="none" rx="0" ry="0" transform="translate(214 525.67)"></rect><path fill="#02f3e9" d="M220.84 533.256v-10.1h2.47v10.1Zm1.23-11.99q-.68 0-1.13-.46-.45-.46-.45-1.15 0-.61.45-1.05.45-.44 1.13-.44.69 0 1.14.44.45.44.45 1.05 0 .69-.45 1.15-.45.46-1.14.46"></path><rect width="3.17" height="15.09" x="-1.58" y="-7.54" fill="none" rx="0" ry="0" transform="translate(222.57 526.21)"></rect><path fill="#02f3e9" d="M229.25 533.256v-10.1h2.33l.02 1.85q.4-.9 1.29-1.51.89-.6 2.14-.6 1.63 0 2.44.67.82.67 1.09 1.9.28 1.23.28 2.93v4.86h-2.38v-4.8q0-1.76-.34-2.68-.34-.92-1.57-.92-.64 0-1.32.39-.68.4-1.15 1.15-.46.74-.46 1.84v5.02Z"></path><rect width="9.59" height="10.36" x="-4.79" y="-5.18" fill="none" rx="0" ry="0" transform="translate(234.54 528.58)"></rect><path fill="#02f3e9" d="M244.71 533.256v-10.1h2.47v10.1Zm1.23-11.99q-.68 0-1.13-.46-.45-.46-.45-1.15 0-.61.45-1.05.45-.44 1.13-.44.69 0 1.14.44.45.44.45 1.05 0 .69-.45 1.15-.45.46-1.14.46"></path><rect width="3.17" height="15.09" x="-1.58" y="-7.54" fill="none" rx="0" ry="0" transform="translate(246.44 526.21)"></rect><path fill="#02f3e9" d="M253.12 533.256v-10.1h2.33l.02 1.85q.4-.9 1.29-1.51.89-.6 2.14-.6 1.63 0 2.44.67.82.67 1.09 1.9.28 1.23.28 2.93v4.86h-2.38v-4.8q0-1.76-.34-2.68-.34-.92-1.57-.92-.64 0-1.32.39-.68.4-1.15 1.15-.46.74-.46 1.84v5.02Z"></path><rect width="9.59" height="10.36" x="-4.79" y="-5.18" fill="none" rx="0" ry="0" transform="translate(258.42 528.58)"></rect><path fill="#02f3e9" d="M273.58 538.536q-.86 0-1.64-.18-.78-.17-1.36-.38-.57-.21-.77-.32l.53-2.2q.53.35 1.3.65.77.3 1.87.3.51 0 1.04-.1.54-.1 1.03-.42.48-.32.78-.95.3-.62.3-1.66v-1.8q-.44.81-1.47 1.41-1.02.59-2.32.59-1.32 0-2.41-.65t-1.74-1.85q-.64-1.2-.64-2.82 0-1.57.6-2.74.61-1.18 1.72-1.85 1.11-.67 2.63-.67.92 0 1.69.32.77.32 1.29.77.51.45.69.87l.04-1.7h2.25v10.03q0 2.49-1.29 3.92-1.29 1.43-4.12 1.43m-.05-7.06q.82 0 1.49-.39.67-.38 1.07-1.09.41-.7.41-1.67v-.15q0-.99-.41-1.73-.4-.74-1.07-1.14-.67-.41-1.49-.41-1.47 0-2.21.95-.74.94-.74 2.33 0 1.41.74 2.35.74.95 2.21.95"></path><rect width="10.91" height="15.64" x="-5.46" y="-7.82" fill="none" rx="0" ry="0" transform="translate(274.04 531.22)"></rect><path fill="#02f3e9" d="M299.34 533.476q-2.11 0-3.38-.86-1.26-.86-1.83-2.46-.56-1.61-.56-3.81v-9.26h2.47v9.31q0 2.57.78 3.68.78 1.11 2.52 1.11t2.51-1.08q.77-1.07.77-3.71v-9.31h2.48v9.26q0 3.39-1.41 5.26-1.4 1.87-4.35 1.87"></path><rect width="11.53" height="16.39" x="-5.76" y="-8.2" fill="none" rx="0" ry="0" transform="translate(299.83 525.78)"></rect><path fill="#02f3e9" d="M314.14 533.476q-.7 0-1.46-.13t-1.39-.34q-.62-.21-.95-.45l.79-1.87q.37.26 1.13.59.76.33 1.88.33.99 0 1.35-.3.35-.29.35-.69 0-.42-.3-.65-.3-.23-.85-.43-.55-.2-1.29-.48-.73-.31-1.39-.72-.66-.4-1.07-1.01-.4-.6-.4-1.48 0-1.43 1.1-2.19t2.9-.76q.92 0 1.79.2.87.19 1.31.5l-.86 1.89q-.26-.26-.87-.48-.6-.22-1.44-.22-1.56 0-1.56.95 0 .46.34.73.34.28.9.46.57.19 1.23.46 1.34.52 2.05 1.22.72.69.72 1.83 0 1.04-.55 1.72-.55.68-1.47 1-.91.32-1.99.32"></path><rect width="7.81" height="10.58" x="-3.9" y="-5.29" fill="none" rx="0" ry="0" transform="translate(314.75 528.69)"></rect><path fill="#02f3e9" d="M328.27 533.476q-1.89 0-3.08-.74-1.19-.73-1.74-1.94t-.55-2.58q0-1.65.67-2.84.67-1.18 1.86-1.83 1.19-.65 2.68-.65 2.4 0 3.5 1.33t1.1 3.57q0 .6-.06 1.24h-7.26q.24 1.36.97 1.94.74.59 1.97.59 1.19 0 1.87-.22.69-.22 1.13-.44l.72 1.69q-.44.29-1.36.58-.93.3-2.42.3m-2.88-6.09h5.01q.02-1.43-.64-1.96t-1.71-.53q-1.1 0-1.8.58-.69.59-.86 1.91"></path><rect width="9.81" height="10.58" x="-4.91" y="-5.29" fill="none" rx="0" ry="0" transform="translate(328.3 528.69)"></rect><path fill="#02f3e9" d="M338.08 533.256v-10.1h2.38v1.98q.35-.99 1.13-1.62.78-.62 1.81-.62.71 0 .97.13l-.33 2.4q-.2-.13-.86-.13-.55 0-1.18.24-.64.24-1.09.84-.45.61-.45 1.69v5.19Z"></path><rect width="6.29" height="10.36" x="-3.15" y="-5.18" fill="none" rx="0" ry="0" transform="translate(341.73 528.58)"></rect><path fill="#02f3e9" d="M357.77 533.256v-16.17h7.08v2.16h-4.64v4.46h3.74v2.2h-3.74v5.17h5.37v2.18Z"></path><rect width="7.81" height="16.17" x="-3.9" y="-8.09" fill="none" rx="0" ry="0" transform="translate(362.18 525.67)"></rect><path fill="#02f3e9" d="m369.69 533.256 3.79-5.24-3.54-4.86h2.81l2.07 3.13 1.96-3.13h2.88l-3.56 4.73 3.87 5.37h-2.73l-2.4-3.56-2.29 3.56Z"></path><rect width="10.28" height="10.1" x="-5.14" y="-5.05" fill="none" rx="0" ry="0" transform="translate(375.33 528.7)"></rect><path fill="#02f3e9" d="M384.94 538.606v-15.45h2.29v1.87q.5-.9 1.42-1.52.91-.61 2.36-.61 1.37 0 2.44.57 1.08.57 1.71 1.74.63 1.16.63 2.95 0 1.62-.66 2.82-.66 1.2-1.76 1.85-1.1.65-2.47.65-1.3 0-2.22-.46-.92-.46-1.45-1.28v6.87Zm5.41-7.13q1.5 0 2.23-.95.74-.94.74-2.31 0-1.43-.74-2.35-.73-.93-2.23-.93-.79 0-1.47.38-.68.37-1.1 1.08-.42.7-.42 1.69v.15q0 .97.42 1.71t1.1 1.13q.68.4 1.47.4"></path><rect width="10.85" height="15.71" x="-5.42" y="-7.86" fill="none" rx="0" ry="0" transform="translate(390.87 531.25)"></rect><path fill="#02f3e9" d="M406.19 533.476q-1.89 0-3.08-.74-1.19-.73-1.74-1.94t-.55-2.58q0-1.65.67-2.84.68-1.18 1.86-1.83 1.19-.65 2.69-.65 2.4 0 3.5 1.33t1.1 3.57q0 .6-.07 1.24h-7.26q.24 1.36.98 1.94.74.59 1.97.59 1.19 0 1.87-.22.68-.22 1.12-.44l.73 1.69q-.44.29-1.37.58-.92.3-2.42.3m-2.88-6.09h5.02q.02-1.43-.64-1.96t-1.72-.53q-1.1 0-1.79.58-.69.59-.87 1.91"></path><rect width="9.82" height="10.58" x="-4.91" y="-5.29" fill="none" rx="0" ry="0" transform="translate(406.23 528.69)"></rect><path fill="#02f3e9" d="M416 533.256v-10.1h2.38v1.98q.35-.99 1.13-1.62.78-.62 1.82-.62.7 0 .97.13l-.33 2.4q-.2-.13-.86-.13-.55 0-1.19.24-.64.24-1.09.84-.45.61-.45 1.69v5.19Z"></path><rect width="6.3" height="10.36" x="-3.15" y="-5.18" fill="none" rx="0" ry="0" transform="translate(419.65 528.58)"></rect><path fill="#02f3e9" d="M427 533.256v-10.1h2.47v10.1Zm1.24-11.99q-.69 0-1.14-.46-.45-.46-.45-1.15 0-.61.45-1.05.45-.44 1.14-.44.68 0 1.13.44.45.44.45 1.05 0 .69-.45 1.15-.45.46-1.13.46"></path><rect width="3.17" height="15.09" x="-1.58" y="-7.54" fill="none" rx="0" ry="0" transform="translate(428.74 526.21)"></rect><path fill="#02f3e9" d="M440.34 533.476q-1.9 0-3.08-.74-1.19-.73-1.74-1.94t-.55-2.58q0-1.65.67-2.84.67-1.18 1.86-1.83 1.19-.65 2.68-.65 2.4 0 3.5 1.33t1.1 3.57q0 .6-.07 1.24h-7.26q.25 1.36.98 1.94.74.59 1.97.59 1.19 0 1.87-.22.68-.22 1.12-.44l.73 1.69q-.44.29-1.36.58-.93.3-2.42.3m-2.89-6.09h5.02q.02-1.43-.64-1.96t-1.71-.53q-1.1 0-1.8.58-.69.59-.87 1.91"></path><rect width="9.81" height="10.58" x="-4.91" y="-5.29" fill="none" rx="0" ry="0" transform="translate(440.38 528.69)"></rect><path fill="#02f3e9" d="M450.15 533.256v-10.1h2.33l.02 1.85q.4-.9 1.29-1.51.89-.6 2.14-.6 1.63 0 2.45.67.81.67 1.08 1.9.28 1.23.28 2.93v4.86h-2.38v-4.8q0-1.76-.34-2.68-.34-.92-1.57-.92-.64 0-1.32.39-.68.4-1.14 1.15-.47.74-.47 1.84v5.02Z"></path><rect width="9.59" height="10.36" x="-4.79" y="-5.18" fill="none" rx="0" ry="0" transform="translate(455.44 528.58)"></rect><path fill="#02f3e9" d="M470.37 533.476q-1.48 0-2.68-.64-1.2-.64-1.91-1.85-.72-1.21-.72-2.9 0-1.58.65-2.75t1.83-1.8q1.18-.64 2.72-.64 1.27 0 2.1.33.82.33 1.24.7l-1.06 1.92q-.08-.11-.35-.33-.26-.22-.69-.41-.43-.19-1.05-.19-1.45 0-2.16.88-.72.88-.72 2.27 0 1.6.76 2.52.76.91 2.12.91.73 0 1.37-.21.64-.21.97-.45l.85 1.67q-.39.31-1.25.64t-2.02.33"></path><rect width="8.58" height="10.58" x="-4.29" y="-5.29" fill="none" rx="0" ry="0" transform="translate(469.85 528.69)"></rect><path fill="#02f3e9" d="M483.39 533.476q-1.89 0-3.08-.74-1.19-.73-1.74-1.94t-.55-2.58q0-1.65.67-2.84.67-1.18 1.86-1.83 1.19-.65 2.69-.65 2.39 0 3.49 1.33t1.1 3.57q0 .6-.06 1.24h-7.26q.24 1.36.98 1.94.73.59 1.97.59 1.18 0 1.87-.22.68-.22 1.12-.44l.72 1.69q-.44.29-1.36.58-.92.3-2.42.3m-2.88-6.09h5.01q.03-1.43-.63-1.96t-1.72-.53q-1.1 0-1.79.58-.7.59-.87 1.91"></path><rect width="9.81" height="10.58" x="-4.91" y="-5.29" fill="none" rx="0" ry="0" transform="translate(483.43 528.69)"></rect><path fill="#02f3e9" d="M496.63 533.476q-.7 0-1.46-.13t-1.39-.34q-.62-.21-.95-.45l.79-1.87q.37.26 1.13.59.76.33 1.88.33.99 0 1.35-.3.35-.29.35-.69 0-.42-.3-.65-.3-.23-.85-.43-.55-.2-1.29-.48-.73-.31-1.39-.72-.66-.4-1.07-1.01-.4-.6-.4-1.48 0-1.43 1.1-2.19t2.9-.76q.92 0 1.79.2.87.19 1.31.5l-.86 1.89q-.26-.26-.87-.48-.6-.22-1.44-.22-1.56 0-1.56.95 0 .46.34.73.34.28.9.46.57.19 1.23.46 1.34.52 2.05 1.22.72.69.72 1.83 0 1.04-.55 1.72-.55.68-1.47 1-.91.32-1.99.32"></path><rect width="7.81" height="10.58" x="-3.9" y="-5.29" fill="none" rx="0" ry="0" transform="translate(497.24 528.69)"></rect><path fill="#33184d" d="M328.123 78.111c.843 3.729 1.864 7.754 2.062 11.635.052 1.036.114 2.396-.319 3.28 3.53 2.349 1.802 7.23-.263 9.713-.743.89-2.432 1.997-2.81 3.101-.557 1.624-1.246 3.219-2.23 4.656-.823 1.198-.647.292-1.466 2.13-.555 2.497-1.396 8.153-.206 10.475 1.562 3.044 4.985 4.97 7.819 6.59 3.755 2.15 7.952 3.726 11.962 5.328 3.693 1.476 7.544 2.577 11.097 4.38 1.114.564 2.237 1.116 3.293 1.788.85.542 2.278 1.377 2.481 2.47v8.596h-95.098l.065-8.596c.203-1.091 1.631-1.928 2.482-2.47 1.055-.672 2.179-1.222 3.293-1.788 3.553-1.803 7.405-2.904 11.096-4.38 4.01-1.604 8.206-3.179 11.963-5.328 2.832-1.62 6.255-3.546 7.817-6.59 1.192-2.323.526-8.003-.03-10.497-.952-.617-1.61-2.526-2.15-3.482-.57-1.01-1.027-2.098-1.721-3.033-.946-1.276-2.523-1.873-3.553-3.068-.688-.796-.981-1.781-1.322-2.757-.407-1.167-.207-2.114-.39-3.425-.08-.56.206-1.212.54-1.686.408-.583 1.153-.697 1.341-1.436.233-.914-.28-1.985-.378-2.889-.105-.965-.355-2.504-.35-3.472.015-3.513-.634-6.682 2.178-9.459.99-.973 2.113-1.814 3.186-2.692.412-1.312 2.388-2.12 3.543-2.561 1.5-.57 3.08-.89 4.618-1.349 4.643-1.383 9.979-1.236 14.05 1.63 1.336.942 3.177.134 4.584.942 1.355.78 2.972 2.582 2.816 4.244"></path></svg></svg>